<svg width="24" height="24" viewBox="0 0 24 24" fill="none" xmlns="http://www.w3.org/2000/svg">
<g clip-path="url(#clip0_6063_1782)">
<path d="M13.0186 2.00098L13.0342 2.00195L13.1172 2.00684L13.1279 2.00879H13.1396L13.1777 2.01758L13.2295 2.02637L13.2451 2.03223L13.2559 2.0332L13.2852 2.04395L13.3369 2.05762L13.3564 2.06738L13.3711 2.07129L13.3994 2.08496L13.4395 2.10156L13.46 2.11426L13.4824 2.12402L13.5049 2.13867L13.5361 2.15625L13.5703 2.17969L13.5879 2.19141L13.6016 2.20312L13.625 2.21973L13.6631 2.25391L13.6855 2.27148L13.6934 2.28125L13.707 2.29297L13.7432 2.33398L13.7695 2.36133L13.7754 2.37012C13.8953 2.51704 13.9711 2.69195 13.9932 2.88281L13.9941 2.89453L13.9961 2.93555L14 3V9H19C19.1753 8.99996 19.3481 9.04632 19.5 9.13379C19.6515 9.22117 19.7774 9.34676 19.8652 9.49805C19.9531 9.64959 20.0005 9.8219 20.001 9.99707C20.0014 10.1723 19.9553 10.345 19.8682 10.4971L19.8086 10.5879L11.8086 21.5879C11.2406 22.3709 10 21.968 10 21V15H5C4.82482 15 4.65278 14.9536 4.50098 14.8662C4.34921 14.7788 4.22265 14.6535 4.13477 14.502C4.0469 14.3504 4.00051 14.1781 4 14.0029C3.99953 13.8277 4.04478 13.655 4.13184 13.5029L4.19238 13.4121L12.1924 2.41211L12.2021 2.39941L12.2207 2.375L12.2529 2.33691L12.2715 2.31543L12.2803 2.30664L12.293 2.29297L12.333 2.25684L12.3613 2.23145L12.3691 2.22461C12.4863 2.12874 12.6242 2.06139 12.7715 2.02637L12.7822 2.02539L12.8096 2.01953L12.8828 2.00684L12.8945 2.00586L12.9355 2.00391L13 2L13.0186 2.00098ZM12.7012 5.00293L12.6709 5.00391L12.6621 5.00488L12.6064 5.01367L12.5869 5.01758L12.5781 5.01855C12.4677 5.04309 12.3642 5.09013 12.2764 5.15723L12.2705 5.16211L12.25 5.17969L12.2197 5.20508L12.21 5.21484L12.2031 5.2207L12.1895 5.23633L12.165 5.2627L12.1514 5.2793L12.1436 5.28809L6.14453 12.9873L6.09961 13.0518C6.03429 13.1582 5.99965 13.2787 6 13.4014C6.00038 13.5239 6.03572 13.644 6.10156 13.75C6.1675 13.8561 6.26207 13.9446 6.37598 14.0059C6.48978 14.067 6.6187 14.0996 6.75 14.0996H10.5V18.2988C10.5 18.9764 11.4304 19.2589 11.8564 18.7109L17.8555 11.0107L17.9004 10.9473C17.9657 10.8408 18.0003 10.7203 18 10.5977C17.9996 10.475 17.9644 10.3542 17.8984 10.248C17.8325 10.1421 17.7378 10.0543 17.624 9.99316C17.5102 9.93203 17.3813 9.89941 17.25 9.89941H13.5V5.7002L13.4971 5.65527L13.4951 5.62598V5.61816C13.4786 5.48447 13.4211 5.36168 13.3311 5.25879L13.3271 5.25293L13.3076 5.2334L13.2803 5.20508L13.2695 5.19629L13.2637 5.18945L13.2471 5.17773L13.2188 5.1543L13.2012 5.1416L13.1914 5.13379L13.1777 5.12598L13.1523 5.10938L13.1289 5.09766L13.1113 5.08691L13.0947 5.08008L13.0791 5.07129L13.0488 5.05957L13.0283 5.0498L13.0166 5.04688L13.0029 5.04102L12.9639 5.03125L12.9424 5.02344L12.9336 5.02246L12.9219 5.01855L12.8828 5.0127L12.8545 5.00586H12.8457L12.8379 5.00488L12.7754 5.00098H12.7637L12.75 5L12.7012 5.00293Z" fill="url(#paint0_linear_6063_1782)"/>
<path d="M12.5088 7.00195H12.5176L12.5586 7.00488L12.5645 7.00586H12.5693L12.5889 7.01074L12.6152 7.01465L12.623 7.01758H12.6279L12.6426 7.02344L12.6689 7.03027L12.6787 7.03516L12.6855 7.03711L12.7002 7.04395L12.7197 7.05273L12.7305 7.05859L12.7412 7.06348L12.7529 7.07031L12.7686 7.0791L12.7852 7.09082L12.7939 7.09668L12.8008 7.10254L12.8125 7.11133L12.832 7.12793L12.8428 7.13672L12.8467 7.1416L12.8535 7.14746L12.8721 7.16797L12.8848 7.18164L12.8877 7.18652C12.9476 7.25991 12.986 7.34708 12.9971 7.44238V7.44824L12.998 7.46875L13 7.50098V10.501H15.5C15.5874 10.501 15.6732 10.5238 15.749 10.5674C15.8249 10.6111 15.8887 10.6742 15.9326 10.75C15.9764 10.8257 15.9997 10.9116 16 10.999C16.0002 11.0866 15.9771 11.173 15.9336 11.249L15.9033 11.2949L11.9043 16.7939C11.6203 17.1848 11.0014 16.9834 11.001 16.5V13.5H8.50098C8.41338 13.5 8.32689 13.4773 8.25098 13.4336C8.17515 13.3899 8.11227 13.3267 8.06836 13.251C8.02449 13.1753 8.00129 13.0894 8.00098 13.002C8.00075 12.9144 8.02385 12.828 8.06738 12.752L8.09668 12.7061L12.0967 7.20703L12.1016 7.20117L12.1104 7.18848L12.127 7.16992L12.1357 7.15918L12.1406 7.1543L12.1465 7.14746L12.167 7.12988L12.1807 7.11719L12.1846 7.11426C12.2431 7.06634 12.3121 7.03217 12.3857 7.01465L12.3916 7.01367L12.4053 7.01172L12.4414 7.00488L12.4473 7.00391L12.4678 7.00293L12.5 7.00098L12.5088 7.00195ZM12.375 8.50098L12.3506 8.50195L12.335 8.50293L12.3311 8.50391L12.3037 8.50781L12.293 8.50977H12.2891C12.2339 8.52204 12.1826 8.54655 12.1387 8.58008L12.1357 8.58203L12.125 8.59082L12.1104 8.60352L12.1055 8.6084L12.1016 8.61133L12.0947 8.61914L12.083 8.63184L12.0762 8.64062L12.0723 8.64551L9.07324 12.4941L9.05078 12.5264C9.01816 12.5796 9.0008 12.6399 9.00098 12.7012C9.00121 12.7623 9.01891 12.8221 9.05176 12.875C9.08469 12.928 9.13162 12.9723 9.18848 13.0029C9.24542 13.0335 9.31027 13.0498 9.37598 13.0498H11.25V15.1494C11.2501 15.488 11.7158 15.6293 11.9287 15.3555L14.9277 11.5059L14.9502 11.4746C14.9828 11.4215 15.0001 11.361 15 11.2998C14.9998 11.2386 14.9821 11.178 14.9492 11.125C14.9163 11.0719 14.8685 11.0277 14.8115 10.9971C14.7547 10.9666 14.6905 10.9502 14.625 10.9502H12.75V8.85059L12.749 8.82812L12.748 8.81445L12.7373 8.76074C12.7237 8.71317 12.6995 8.66928 12.666 8.63086L12.6631 8.62695L12.6533 8.61816L12.6406 8.60352L12.6348 8.59961L12.6318 8.5957L12.624 8.58984L12.6094 8.57812L12.6006 8.57227L12.5957 8.56738L12.5889 8.56445L12.5762 8.55566L12.5645 8.5498L12.5557 8.54395L12.5479 8.54102L12.54 8.53711L12.5244 8.53027L12.5147 8.52539L12.5088 8.52441L12.502 8.52148L12.4824 8.5166L12.4707 8.5127H12.4668L12.4609 8.50977L12.4414 8.50684L12.4277 8.50391H12.4189L12.3877 8.50195L12.3818 8.50098H12.375Z" fill="url(#paint1_linear_6063_1782)"/>
<path d="M12.1299 10.752H12.1426L12.1475 10.7539L12.1543 10.7549H12.1563L12.1572 10.7559L12.1611 10.7568L12.168 10.7588L12.1699 10.7598H12.1719L12.1748 10.7617L12.1807 10.7637L12.1826 10.7656L12.1855 10.7666L12.1885 10.7686L12.1924 10.7705L12.1963 10.7734L12.1992 10.7754L12.2002 10.7764L12.2031 10.7783L12.208 10.7832L12.2109 10.7852L12.2139 10.7881L12.2178 10.793L12.2227 10.7979C12.2374 10.816 12.2462 10.8378 12.249 10.8613L12.25 10.8633V11.626H12.875C12.8969 11.626 12.9185 11.6317 12.9375 11.6426C12.9564 11.6535 12.9724 11.6696 12.9834 11.6885C12.9942 11.7072 12.9999 11.7284 13 11.75C13.0001 11.7718 12.9942 11.7936 12.9834 11.8125L12.9756 11.8242L11.9766 13.1982C11.9056 13.2961 11.751 13.2459 11.751 13.125V12.375H11.126C11.1041 12.375 11.0825 12.3693 11.0635 12.3584C11.0446 12.3475 11.0285 12.3323 11.0176 12.3135C11.0066 12.2946 11.0011 12.2728 11.001 12.251C11.0009 12.2291 11.0067 12.2075 11.0176 12.1885L11.0254 12.1768L12.0244 10.8027L12.0254 10.8008L12.0283 10.7979L12.0322 10.793L12.042 10.7832L12.0459 10.7803L12.0469 10.7793C12.0614 10.7675 12.0784 10.7592 12.0967 10.7549H12.0986L12.1016 10.7539L12.1104 10.752H12.1172L12.125 10.751H12.1279L12.1299 10.752ZM12.0879 11.126L12.084 11.127H12.083L12.0762 11.1279H12.0723C12.0587 11.131 12.046 11.1373 12.0352 11.1455L12.0313 11.1484L12.0264 11.1533H12.0254L12.0244 11.1553L12.0215 11.1592L12.0186 11.1621L11.2686 12.124L11.2637 12.1318C11.2555 12.1451 11.2509 12.1605 11.251 12.1758C11.2511 12.1911 11.2555 12.2065 11.2637 12.2197C11.2719 12.2328 11.2838 12.2434 11.2979 12.251C11.3121 12.2586 11.3283 12.2627 11.3447 12.2627H11.8135V12.7871C11.8135 12.8718 11.9292 12.9073 11.9824 12.8389L12.7324 11.877L12.7373 11.8691C12.7455 11.8558 12.75 11.8405 12.75 11.8252C12.7499 11.81 12.7454 11.7954 12.7373 11.7822C12.7291 11.769 12.7173 11.7576 12.7031 11.75C12.6889 11.7424 12.6727 11.7383 12.6563 11.7383H12.1875V11.2031C12.1854 11.1865 12.1782 11.171 12.167 11.1582L12.1582 11.1494L12.1563 11.1484L12.1523 11.1455L12.1494 11.1426L12.1475 11.1416L12.1445 11.1396L12.1416 11.1387L12.1396 11.1367L12.1357 11.1348L12.1318 11.1338L12.1289 11.1318H12.1279L12.126 11.1309L12.1211 11.1299L12.1182 11.1289H12.1172L12.1152 11.1279H12.1104L12.1074 11.127H12.1055L12.0977 11.126H12.0879Z" fill="url(#paint2_linear_6063_1782)"/>
</g>
<defs>
<linearGradient id="paint0_linear_6063_1782" x1="12.0002" y1="2" x2="12.0002" y2="22.0016" gradientUnits="userSpaceOnUse">
<stop stop-color="white"/>
<stop offset="0.644231" stop-color="#901CEA"/>
</linearGradient>
<linearGradient id="paint1_linear_6063_1782" x1="12.0004" y1="7.00098" x2="12.0004" y2="17.0004" gradientUnits="userSpaceOnUse">
<stop offset="0.0769231" stop-color="#901CEA"/>
<stop offset="1" stop-color="white"/>
</linearGradient>
<linearGradient id="paint2_linear_6063_1782" x1="12.0005" y1="10.751" x2="12.0005" y2="13.25" gradientUnits="userSpaceOnUse">
<stop offset="0.0769231" stop-color="#901CEA"/>
<stop offset="1" stop-color="white"/>
</linearGradient>
<clipPath id="clip0_6063_1782">
<rect width="24" height="24" fill="white"/>
</clipPath>
</defs>
</svg>
